<mxfile host="app.diagrams.net" agent="Mozilla/5.0 (Windows NT 10.0; Win64; x64) AppleWebKit/537.36 (KHTML, like Gecko) Chrome/137.0.0.0 Safari/537.36 Edg/137.0.0.0" version="27.1.4">
  <diagram name="Page-1" id="ukVoowGiGMXWlxbRoC9n">
    <mxGraphModel dx="778" dy="514" grid="1" gridSize="10" guides="1" tooltips="1" connect="1" arrows="1" fold="1" page="1" pageScale="1" pageWidth="850" pageHeight="1100" math="0" shadow="0">
      <root>
        <mxCell id="0" />
        <mxCell id="1" parent="0" />
        <mxCell id="GRFxthuUE7YwB1FqXBWR-1" value="" style="rounded=0;whiteSpace=wrap;html=1;container=1;" vertex="1" parent="1">
          <mxGeometry x="450" y="610" width="465" height="360" as="geometry" />
        </mxCell>
        <mxCell id="DiptRn0a8JAyyoFzcJ41-2" value="Người dùng" style="shape=umlActor;verticalLabelPosition=bottom;verticalAlign=top;html=1;outlineConnect=0;" parent="GRFxthuUE7YwB1FqXBWR-1" vertex="1">
          <mxGeometry x="-120" y="160" width="30" height="60" as="geometry" />
        </mxCell>
        <mxCell id="DiptRn0a8JAyyoFzcJ41-4" value="Cập nhật thông tin liên lạc" style="ellipse;whiteSpace=wrap;html=1;" parent="GRFxthuUE7YwB1FqXBWR-1" vertex="1">
          <mxGeometry x="30" y="20" width="130" height="60" as="geometry" />
        </mxCell>
        <mxCell id="DiptRn0a8JAyyoFzcJ41-5" value="Xem thông tin liên lạc các người dùng khác" style="ellipse;whiteSpace=wrap;html=1;" parent="GRFxthuUE7YwB1FqXBWR-1" vertex="1">
          <mxGeometry x="30" y="100" width="130" height="60" as="geometry" />
        </mxCell>
        <mxCell id="DiptRn0a8JAyyoFzcJ41-6" value="Tìm kiếm thú cưng" style="ellipse;whiteSpace=wrap;html=1;" parent="GRFxthuUE7YwB1FqXBWR-1" vertex="1">
          <mxGeometry x="30" y="180" width="135" height="60" as="geometry" />
        </mxCell>
        <mxCell id="DiptRn0a8JAyyoFzcJ41-7" value="Báo cáo thú cưng thất lạc hoặc đã tìm thấy" style="ellipse;whiteSpace=wrap;html=1;" parent="GRFxthuUE7YwB1FqXBWR-1" vertex="1">
          <mxGeometry x="30" y="260" width="135" height="60" as="geometry" />
        </mxCell>
        <mxCell id="DiptRn0a8JAyyoFzcJ41-10" value="" style="endArrow=classic;html=1;rounded=0;" parent="GRFxthuUE7YwB1FqXBWR-1" source="DiptRn0a8JAyyoFzcJ41-2" target="DiptRn0a8JAyyoFzcJ41-4" edge="1">
          <mxGeometry width="50" height="50" relative="1" as="geometry">
            <mxPoint x="240" y="150" as="sourcePoint" />
            <mxPoint x="290" y="100" as="targetPoint" />
          </mxGeometry>
        </mxCell>
        <mxCell id="DiptRn0a8JAyyoFzcJ41-11" value="" style="endArrow=classic;html=1;rounded=0;" parent="GRFxthuUE7YwB1FqXBWR-1" source="DiptRn0a8JAyyoFzcJ41-2" target="DiptRn0a8JAyyoFzcJ41-5" edge="1">
          <mxGeometry width="50" height="50" relative="1" as="geometry">
            <mxPoint x="-80" y="220" as="sourcePoint" />
            <mxPoint x="290" y="100" as="targetPoint" />
          </mxGeometry>
        </mxCell>
        <mxCell id="DiptRn0a8JAyyoFzcJ41-12" value="" style="endArrow=classic;html=1;rounded=0;" parent="GRFxthuUE7YwB1FqXBWR-1" source="DiptRn0a8JAyyoFzcJ41-2" target="DiptRn0a8JAyyoFzcJ41-6" edge="1">
          <mxGeometry width="50" height="50" relative="1" as="geometry">
            <mxPoint x="240" y="150" as="sourcePoint" />
            <mxPoint x="290" y="100" as="targetPoint" />
          </mxGeometry>
        </mxCell>
        <mxCell id="DiptRn0a8JAyyoFzcJ41-13" value="" style="endArrow=classic;html=1;rounded=0;" parent="GRFxthuUE7YwB1FqXBWR-1" source="DiptRn0a8JAyyoFzcJ41-2" target="DiptRn0a8JAyyoFzcJ41-7" edge="1">
          <mxGeometry width="50" height="50" relative="1" as="geometry">
            <mxPoint x="240" y="150" as="sourcePoint" />
            <mxPoint x="290" y="100" as="targetPoint" />
          </mxGeometry>
        </mxCell>
        <mxCell id="DiptRn0a8JAyyoFzcJ41-14" value="" style="endArrow=classic;html=1;rounded=0;dashed=1;dashPattern=8 8;" parent="GRFxthuUE7YwB1FqXBWR-1" source="DiptRn0a8JAyyoFzcJ41-6" target="DiptRn0a8JAyyoFzcJ41-8" edge="1">
          <mxGeometry width="50" height="50" relative="1" as="geometry">
            <mxPoint x="250" y="120" as="sourcePoint" />
            <mxPoint x="300" y="70" as="targetPoint" />
          </mxGeometry>
        </mxCell>
        <mxCell id="DiptRn0a8JAyyoFzcJ41-17" value="&amp;lt;&amp;lt;extend&amp;gt;&amp;gt;" style="edgeLabel;html=1;align=center;verticalAlign=middle;resizable=0;points=[];" parent="DiptRn0a8JAyyoFzcJ41-14" vertex="1" connectable="0">
          <mxGeometry x="-0.0645" y="-1" relative="1" as="geometry">
            <mxPoint as="offset" />
          </mxGeometry>
        </mxCell>
        <mxCell id="DiptRn0a8JAyyoFzcJ41-15" value="" style="endArrow=classic;html=1;rounded=0;dashed=1;dashPattern=8 8;" parent="GRFxthuUE7YwB1FqXBWR-1" source="DiptRn0a8JAyyoFzcJ41-6" target="DiptRn0a8JAyyoFzcJ41-9" edge="1">
          <mxGeometry width="50" height="50" relative="1" as="geometry">
            <mxPoint x="260" y="199" as="sourcePoint" />
            <mxPoint x="389" y="160" as="targetPoint" />
          </mxGeometry>
        </mxCell>
        <mxCell id="DiptRn0a8JAyyoFzcJ41-16" value="&amp;lt;&amp;lt;extend&amp;gt;&amp;gt;" style="edgeLabel;html=1;align=center;verticalAlign=middle;resizable=0;points=[];" parent="DiptRn0a8JAyyoFzcJ41-15" vertex="1" connectable="0">
          <mxGeometry x="-0.2806" y="3" relative="1" as="geometry">
            <mxPoint x="8" as="offset" />
          </mxGeometry>
        </mxCell>
        <mxCell id="DiptRn0a8JAyyoFzcJ41-8" value="Tìm kiếm trên bản đồ" style="ellipse;whiteSpace=wrap;html=1;" parent="GRFxthuUE7YwB1FqXBWR-1" vertex="1">
          <mxGeometry x="275" y="120" width="120" height="60" as="geometry" />
        </mxCell>
        <mxCell id="DiptRn0a8JAyyoFzcJ41-9" value="Tìm kiếm bằng hình ảnh" style="ellipse;whiteSpace=wrap;html=1;" parent="GRFxthuUE7YwB1FqXBWR-1" vertex="1">
          <mxGeometry x="290" y="230" width="120" height="60" as="geometry" />
        </mxCell>
      </root>
    </mxGraphModel>
  </diagram>
</mxfile>
